<svg xmlns="http://www.w3.org/2000/svg" width="248.9" height="50.3" viewBox="0 0 248.9 50.3"><path fill="none" d="M147.8 40.5c0 2.5.8 6.5 4.1 6.5s3.7-2.5 3.7-4.4V30.4c-4.1 2.7-7.8 3.3-7.8 10.1z"/><ellipse cx="76" cy="34.4" fill="none" rx="5.2" ry="15.8"/><path d="M54 28c0-6.4-3.7-9.5-9-9.5s-8.9 2-10.3 9.1c-.2-6.2-3.7-9.1-9-9.1s-8.9 2-10.3 9.2v-9.1L0 19.6l4.6-.3v30.4h10.8V28.1c1-5 3.3-7.8 5.9-7.8s2.5 2.7 2.5 4.2v25.2h10.9V28.1c1-5 3.3-7.8 5.9-7.8s2.5 2.7 2.5 4.2v25.2H54zm22-9.5c-9.6 0-17.1 6.5-17.1 15.9S66.4 50.3 76 50.3s17.1-6.5 17.1-15.9S85.6 18.5 76 18.5zm0 31.6c-4.6 0-5.2-6.6-5.2-15.7s.6-15.8 5.2-15.8 5.2 7.2 5.2 15.8-.6 15.7-5.2 15.7zM129.7 28c0-6.4-3.7-9.4-8.8-9.4s-9.5 1.9-10.9 9.1l.2-9.1-15.6 1 4.6-.3v30.4H110V28.1c1-5 3.7-7.8 6.1-7.8s2.8 2.5 2.8 4.2v25.2h10.8zm41.4 14.1c0 1.8-.3 5.5-2.7 5.5s-1.9-2.3-1.9-6v-14c0-6.8-7.1-9.1-15.3-9.1-4.5 0-13.4 1.6-13.4 8.3a5.2 5.2 0 0 0 5.5 5.4 5 5 0 0 0 5.2-4.9 3.9 3.9 0 0 1-2.1-3.6c0-2.4 1.5-5.1 4.8-5.1s4.4 4.1 4.4 7.6v4.1c-6.6 4.6-19.8 3-19.8 12.2 0 5.1 3.5 7.8 9.1 7.8s10.2-3.3 10.8-7.2c.2 4 2.3 7 7.3 7s8.2-2.6 8.2-8zm-15.5.5c0 1.9-1.4 4.4-3.7 4.4s-4.1-4-4.1-6.5c0-6.8 3.7-7.4 7.8-10.1zM224.4 28c0-6.4-3.7-9.5-9-9.5s-8.9 2-10.3 9.1c-.1-6.2-3.7-9.1-9-9.1s-8.9 2-10.3 9.2v-9.1l-15.5 1 4.6-.3v30.4h10.8V28.1c1-5 3.3-7.8 5.9-7.8s2.6 2.7 2.6 4.2v25.2H205V28.1c1-5 3.3-7.8 5.9-7.8s2.5 2.7 2.5 4.2v25.2h10.9zm20.1 21.7V25.1l.1-6.5-15.5 1v.1l4.5-.3v30.3h-4.5v.1h19.8v-.1h-4.4zm-9.9-39.2l2.1-1.3-1.1-.5-1.5 1 .5.8zm6.4-4l-.5-.8-1.4.8.1 1.2 1.8-1.2z"/><path d="M240.5 5.7l.5.8-1.8 1.2v2.2c0 .3-.3.5-.5.3l-2.1-1-2.1 1.3-.5-.8 1.5-1-2.5-1.3a6 6 0 0 0-.6 2.7 6.6 6.6 0 1 0 6.6-6.6h-.1l.2 3z"/><path d="M239.2 7.7l-.1-1.2-3.5 2.2 1.1.5 2.5-1.5z"/></svg>