<svg xmlns="http://www.w3.org/2000/svg" width="63.3" height="12.8" viewBox="0 0 63.3 12.8"><path fill="none" d="M37.6 9.9c0 .6.2 1.6 1 1.6a1.1 1.1 0 0 0 1-1.1V7.3c-1.1.7-2 .8-2 2.6z"/><ellipse cx="19.3" cy="8.3" fill="none" rx="1.3" ry="4"/><path d="M13.7 6.7a2.1 2.1 0 0 0-2.3-2.4 2.5 2.5 0 0 0-2.6 2.3 2.1 2.1 0 0 0-2.3-2.3 2.5 2.5 0 0 0-2.6 2.3V4.3L0 4.5h1.1v7.7h2.8V6.7c.3-1.3.9-2 1.5-2s.7.7.7 1.1v6.4h2.7V6.7c.3-1.3.9-2 1.5-2s.7.7.7 1.1v6.4h2.7zm5.6-2.4a4 4 0 1 0 0 8c2.5 0 4.4-1.6 4.4-4s-1.9-4-4.4-4zm0 8c-1.1 0-1.3-1.7-1.3-4s.2-4 1.3-4 1.3 1.8 1.3 4-.1 4-1.3 4zM33 6.7c0-1.7-.9-2.4-2.2-2.4A2.6 2.6 0 0 0 28 6.6V4.3l-3.9.2h1.1v7.7H28V6.7c.2-1.3.9-2 1.5-2s.7.6.7 1.1v6.4H33zm10.5 3.6c0 .4 0 1.4-.7 1.4s-.4-.6-.4-1.6V6.6c0-1.8-1.9-2.3-3.9-2.3S35 4.7 35 6.4a1.4 1.4 0 0 0 1.4 1.4 1.4 1.4 0 0 0 1.4-1.3 1.1 1.1 0 0 1-.5-.9 1.2 1.2 0 0 1 1.2-1.3c1 0 1.1 1 1.1 1.9v1.1c-1.7 1.1-5 .7-5 3.1s.8 1.9 2.2 1.9 2.7-.8 2.8-1.8a1.8 1.8 0 0 0 1.9 1.8 1.8 1.8 0 0 0 2.1-2zm-3.9.1a1.1 1.1 0 0 1-1 1.1c-.8 0-1-1-1-1.6s.9-1.9 2-2.6zm17.5-3.7a2.1 2.1 0 0 0-2.3-2.4 2.5 2.5 0 0 0-2.6 2.3 2.1 2.1 0 0 0-2.3-2.3 2.5 2.5 0 0 0-2.6 2.3V4.3l-3.9.2h1.1v7.7h2.8V6.7c.2-1.3.8-2 1.5-2s.6.7.6 1.1v6.4h2.8V6.7c.2-1.3.8-2 1.5-2s.6.7.6 1.1v6.4h2.8zm5.1 5.5V4.3l-3.9.2v.1l1.1-.1v7.7h-1.1 5-1.1zm-2.5-10l.5-.3-.2-.1-.4.2.1.2zm1.6-1l-.1-.2-.4.2.1.3.4-.3z"/><path d="M61.2 1v.2l-.4.3v.6h-.2l-.5-.3-.5.3V2l.4-.2-.7-.4a1.9 1.9 0 0 0-.2.7 1.7 1.7 0 0 0 1.7 1.7 1.6 1.6 0 0 0 1.7-1.7A1.7 1.7 0 0 0 60.8.4v.8z"/><path d="M60.9 1.5l-.1-.3-.8.6.2.1.7-.4z"/></svg>