<svg xmlns="http://www.w3.org/2000/svg" width="63.3" height="12.8" viewBox="0 0 63.3 12.8"><path fill="none" d="M37.6 10.3c0 .6.2 1.7 1 1.7s1-.7 1-1.2V7.7c-1.1.7-2 .9-2 2.6z"/><ellipse cx="19.3" cy="8.7" fill="none" rx="1.3" ry="4"/><path d="M13.7 7.1a2.1 2.1 0 0 0-2.3-2.4A2.5 2.5 0 0 0 8.8 7a2.1 2.1 0 0 0-2.3-2.3c-1.1 0-2.2.5-2.6 2.4V4.7L0 5h1.2v7.7h2.7V7.1c.3-1.2.9-1.9 1.5-1.9s.7.7.7 1v6.4h2.7V7.1c.3-1.2.9-1.9 1.5-1.9s.7.7.7 1v6.4h2.7zm5.6-2.4a4.1 4.1 0 1 0 0 8.1 4.1 4.1 0 0 0 4.4-4.1 4.1 4.1 0 0 0-4.4-4zm0 8.1c-1.1 0-1.3-1.7-1.3-4.1s.2-4 1.3-4 1.3 1.9 1.3 4-.1 4.1-1.3 4.1zM33 7.1a2.1 2.1 0 0 0-2.2-2.4A2.6 2.6 0 0 0 28 7.1V4.7l-3.9.3h1.1v7.7H28V7.1c.2-1.2.9-1.9 1.5-1.9s.7.6.7 1v6.4H33zm10.5 3.6c0 .5 0 1.4-.7 1.4s-.4-.6-.4-1.5V7c0-1.7-1.9-2.3-3.9-2.3S35 5.1 35 6.8a1.3 1.3 0 0 0 1.4 1.4 1.3 1.3 0 0 0 1.4-1.3.9.9 0 0 1-.6-.9 1.3 1.3 0 0 1 1.3-1.3c1 0 1.1 1.1 1.1 2v1c-1.7 1.2-5 .8-5 3.1s.8 2 2.2 2 2.7-.8 2.8-1.8a1.8 1.8 0 0 0 1.9 1.8 1.9 1.9 0 0 0 2.1-2.1zm-3.9.1c0 .5-.4 1.2-1 1.2s-1-1.1-1-1.7.9-1.9 2-2.6zm17.5-3.7a2.2 2.2 0 0 0-2.3-2.4A2.5 2.5 0 0 0 52.2 7a2.2 2.2 0 0 0-2.3-2.3 2.5 2.5 0 0 0-2.6 2.4V4.7l-4 .3h1.2v7.7h2.8V7.1c.2-1.2.8-1.9 1.5-1.9s.6.7.6 1v6.4h2.8V7.1c.2-1.2.8-1.9 1.5-1.9s.6.7.6 1v6.4h2.8zm5.1 5.5V4.7l-3.9.3 1.1-.1v7.7h-1.1v.1h5v-.1h-1.1z"/><path fill="#fff" d="M60.7 2.6c.1 0 .2 0 .2-.1v-.6l-.6.4zm-2.1-1.1l.7.4.6.3.9-.5V.1h-.1l-2 1.3c-.2 0-.2.1-.1.1z"/><path d="M59.7 2.7l.5-.4-.3-.1-.4.3.2.2zm1.6-1l-.1-.3-.4.3v.2l.5-.2z"/><path d="M61.2 1.4v.3l-.5.2v.6c0 .1-.1.1-.2.1l-.5-.3-.5.4-.2-.2.4-.3-.6-.3a1.4 1.4 0 0 0-.2.7 1.7 1.7 0 0 0 3.4 0A1.7 1.7 0 0 0 60.8.9v.8z"/><path d="M60.8 1.9v-.2l-.9.5.3.1.6-.4z"/></svg>